<svg width="35" height="41" viewBox="0 0 35 41" fill="none" xmlns="http://www.w3.org/2000/svg">
<g filter="url(#filter0_i_28_399)">
<circle cx="17.1429" cy="17.1429" r="17.1429" fill="#FF5F05"/>
<circle cx="17.1429" cy="17.1429" r="17.1429" fill="url(#paint0_radial_28_399)" fill-opacity="0.4"/>
</g>
<circle cx="17.1429" cy="17.1429" r="16.6429" stroke="white" stroke-opacity="0.2"/>
<circle cx="17.1429" cy="17.1429" r="16.6429" stroke="url(#paint1_radial_28_399)" stroke-opacity="0.53"/>
<path d="M12.8029 6.92859H14.2029C14.7029 6.92859 15.1279 7.10359 15.4779 7.45359C15.8279 7.80359 16.0029 8.22859 16.0029 8.72859V22.6286C16.0029 23.1286 15.8279 23.5536 15.4779 23.9036C15.1279 24.2536 14.7029 24.4286 14.2029 24.4286H12.8029C12.3029 24.4286 11.8779 24.2536 11.5279 23.9036C11.1779 23.5536 11.0029 23.1286 11.0029 22.6286V8.72859C11.0029 8.22859 11.1779 7.80359 11.5279 7.45359C11.8779 7.10359 12.3029 6.92859 12.8029 6.92859ZM13.0029 22.9286H14.0029C14.1363 22.9286 14.2529 22.8786 14.3529 22.7786C14.4529 22.6786 14.5029 22.5619 14.5029 22.4286V8.92859C14.5029 8.79526 14.4529 8.67859 14.3529 8.57859C14.2529 8.47859 14.1363 8.42859 14.0029 8.42859H13.0029C12.8696 8.42859 12.7529 8.47859 12.6529 8.57859C12.5529 8.67859 12.5029 8.79526 12.5029 8.92859V22.4286C12.5029 22.5619 12.5529 22.6786 12.6529 22.7786C12.7529 22.8786 12.8696 22.9286 13.0029 22.9286ZM20.3721 8.42859V6.92859H21.8721V22.9286H23.6221V24.4286H18.6221V22.9286H20.3721V9.92859H18.6221V8.42859H20.3721Z" fill="white"/>
<defs>
<filter id="filter0_i_28_399" x="0" y="0" width="34.2858" height="38.2857" filterUnits="userSpaceOnUse" color-interpolation-filters="sRGB">
<feFlood flood-opacity="0" result="BackgroundImageFix"/>
<feBlend mode="normal" in="SourceGraphic" in2="BackgroundImageFix" result="shape"/>
<feColorMatrix in="SourceAlpha" type="matrix" values="0 0 0 0 0 0 0 0 0 0 0 0 0 0 0 0 0 0 127 0" result="hardAlpha"/>
<feOffset dy="4"/>
<feGaussianBlur stdDeviation="10.25"/>
<feComposite in2="hardAlpha" operator="arithmetic" k2="-1" k3="1"/>
<feColorMatrix type="matrix" values="0 0 0 0 1 0 0 0 0 0.856714 0 0 0 0 0.754167 0 0 0 0.3 0"/>
<feBlend mode="normal" in2="shape" result="effect1_innerShadow_28_399"/>
</filter>
<radialGradient id="paint0_radial_28_399" cx="0" cy="0" r="1" gradientUnits="userSpaceOnUse" gradientTransform="translate(23.3143 4.11429) rotate(103.241) scale(23.951 13.1179)">
<stop stop-color="white"/>
<stop offset="1" stop-color="white" stop-opacity="0"/>
</radialGradient>
<radialGradient id="paint1_radial_28_399" cx="0" cy="0" r="1" gradientUnits="userSpaceOnUse" gradientTransform="translate(17.8784 2.59559e-06) rotate(90.4081) scale(23.8292 12.064)">
<stop stop-color="white"/>
<stop offset="1" stop-color="white" stop-opacity="0"/>
</radialGradient>
</defs>
</svg>
