<svg width="35" height="42" viewBox="0 0 35 42" fill="none" xmlns="http://www.w3.org/2000/svg">
<g filter="url(#filter0_i_28_402)">
<circle cx="17.1429" cy="17.1429" r="17.1429" fill="#FF5F05"/>
<circle cx="17.1429" cy="17.1429" r="17.1429" fill="url(#paint0_radial_28_402)" fill-opacity="0.4"/>
</g>
<circle cx="17.1429" cy="17.1429" r="16.6429" stroke="white" stroke-opacity="0.2"/>
<circle cx="17.1429" cy="17.1429" r="16.6429" stroke="url(#paint1_radial_28_402)" stroke-opacity="0.53"/>
<path d="M11.6809 7.92859H13.0809C13.5809 7.92859 14.0059 8.10359 14.3559 8.45359C14.7059 8.80359 14.8809 9.22859 14.8809 9.72859V23.6286C14.8809 24.1286 14.7059 24.5536 14.3559 24.9036C14.0059 25.2536 13.5809 25.4286 13.0809 25.4286H11.6809C11.1809 25.4286 10.7559 25.2536 10.4059 24.9036C10.0559 24.5536 9.88086 24.1286 9.88086 23.6286V9.72859C9.88086 9.22859 10.0559 8.80359 10.4059 8.45359C10.7559 8.10359 11.1809 7.92859 11.6809 7.92859ZM11.8809 23.9286H12.8809C13.0142 23.9286 13.1309 23.8786 13.2309 23.7786C13.3309 23.6786 13.3809 23.5619 13.3809 23.4286V9.92859C13.3809 9.79526 13.3309 9.67859 13.2309 9.57859C13.1309 9.47859 13.0142 9.42859 12.8809 9.42859H11.8809C11.7475 9.42859 11.6309 9.47859 11.5309 9.57859C11.4309 9.67859 11.3809 9.79526 11.3809 9.92859V23.4286C11.3809 23.5619 11.4309 23.6786 11.5309 23.7786C11.6309 23.8786 11.7475 23.9286 11.8809 23.9286ZM19.425 7.92859H20.825C21.325 7.92859 21.75 8.10359 22.1 8.45359C22.45 8.80359 22.625 9.22859 22.625 9.72859V13.2786C22.625 13.8786 22.6083 14.5119 22.575 15.1786C22.5417 15.8286 22.4333 16.4536 22.25 17.0536C22.0667 17.6369 21.775 18.1453 21.375 18.5786C20.9917 18.9953 20.4333 19.2619 19.7 19.3786H19.625C19.4917 19.3786 19.375 19.4369 19.275 19.5536C19.175 19.6703 19.125 19.7953 19.125 19.9286V23.9286H22.625V25.4286H17.625V19.7286C17.625 19.2786 17.7667 18.8953 18.05 18.5786C18.3333 18.2453 18.6917 18.0369 19.125 17.9536C19.575 17.9036 19.925 17.7703 20.175 17.5536C20.4417 17.3203 20.6417 16.9786 20.775 16.5286C20.925 16.0786 21.0167 15.5036 21.05 14.8036C21.1 14.1036 21.125 13.2536 21.125 12.2536V9.92859C21.125 9.79526 21.075 9.67859 20.975 9.57859C20.875 9.47859 20.7583 9.42859 20.625 9.42859H19.625C19.4917 9.42859 19.375 9.47859 19.275 9.57859C19.175 9.67859 19.125 9.79526 19.125 9.92859V10.4286H17.625V9.72859C17.625 9.22859 17.8 8.80359 18.15 8.45359C18.5 8.10359 18.925 7.92859 19.425 7.92859Z" fill="white"/>
<defs>
<filter id="filter0_i_28_402" x="0" y="0" width="34.2858" height="38.2858" filterUnits="userSpaceOnUse" color-interpolation-filters="sRGB">
<feFlood flood-opacity="0" result="BackgroundImageFix"/>
<feBlend mode="normal" in="SourceGraphic" in2="BackgroundImageFix" result="shape"/>
<feColorMatrix in="SourceAlpha" type="matrix" values="0 0 0 0 0 0 0 0 0 0 0 0 0 0 0 0 0 0 127 0" result="hardAlpha"/>
<feOffset dy="4"/>
<feGaussianBlur stdDeviation="10.25"/>
<feComposite in2="hardAlpha" operator="arithmetic" k2="-1" k3="1"/>
<feColorMatrix type="matrix" values="0 0 0 0 1 0 0 0 0 0.856714 0 0 0 0 0.754167 0 0 0 0.3 0"/>
<feBlend mode="normal" in2="shape" result="effect1_innerShadow_28_402"/>
</filter>
<radialGradient id="paint0_radial_28_402" cx="0" cy="0" r="1" gradientUnits="userSpaceOnUse" gradientTransform="translate(23.3143 4.11429) rotate(103.241) scale(23.951 13.1179)">
<stop stop-color="white"/>
<stop offset="1" stop-color="white" stop-opacity="0"/>
</radialGradient>
<radialGradient id="paint1_radial_28_402" cx="0" cy="0" r="1" gradientUnits="userSpaceOnUse" gradientTransform="translate(17.8784 2.59559e-06) rotate(90.4081) scale(23.8292 12.064)">
<stop stop-color="white"/>
<stop offset="1" stop-color="white" stop-opacity="0"/>
</radialGradient>
</defs>
</svg>
