<svg width="35" height="42" viewBox="0 0 35 42" fill="none" xmlns="http://www.w3.org/2000/svg">
<g filter="url(#filter0_i_28_408)">
<circle cx="17.1429" cy="17.1429" r="17.1429" fill="#FF5F05"/>
<circle cx="17.1429" cy="17.1429" r="17.1429" fill="url(#paint0_radial_28_408)" fill-opacity="0.4"/>
</g>
<circle cx="17.1429" cy="17.1429" r="16.6429" stroke="white" stroke-opacity="0.2"/>
<circle cx="17.1429" cy="17.1429" r="16.6429" stroke="url(#paint1_radial_28_408)" stroke-opacity="0.53"/>
<path d="M11.6809 7.92859H13.0809C13.5809 7.92859 14.0059 8.10359 14.3559 8.45359C14.7059 8.80359 14.8809 9.22859 14.8809 9.72859V23.6286C14.8809 24.1286 14.7059 24.5536 14.3559 24.9036C14.0059 25.2536 13.5809 25.4286 13.0809 25.4286H11.6809C11.1809 25.4286 10.7559 25.2536 10.4059 24.9036C10.0559 24.5536 9.88086 24.1286 9.88086 23.6286V9.72859C9.88086 9.22859 10.0559 8.80359 10.4059 8.45359C10.7559 8.10359 11.1809 7.92859 11.6809 7.92859ZM11.8809 23.9286H12.8809C13.0142 23.9286 13.1309 23.8786 13.2309 23.7786C13.3309 23.6786 13.3809 23.5619 13.3809 23.4286V9.92859C13.3809 9.79526 13.3309 9.67859 13.2309 9.57859C13.1309 9.47859 13.0142 9.42859 12.8809 9.42859H11.8809C11.7475 9.42859 11.6309 9.47859 11.5309 9.57859C11.4309 9.67859 11.3809 9.79526 11.3809 9.92859V23.4286C11.3809 23.5619 11.4309 23.6786 11.5309 23.7786C11.6309 23.8786 11.7475 23.9286 11.8809 23.9286ZM17.625 12.6536V7.92859H19.125V12.2536C19.125 13.2536 19.1417 14.1119 19.175 14.8286C19.2083 15.5453 19.2917 16.1369 19.425 16.6036C19.575 17.0536 19.7833 17.3869 20.05 17.6036C20.3167 17.8203 20.675 17.9286 21.125 17.9286V7.92859H22.625V25.4286H21.125V19.4286C19.525 19.4286 18.4833 18.6203 18 17.0036C17.8167 16.4203 17.7083 15.7619 17.675 15.0286C17.6417 14.2786 17.625 13.4869 17.625 12.6536Z" fill="white"/>
<defs>
<filter id="filter0_i_28_408" x="0" y="0" width="34.2858" height="38.2858" filterUnits="userSpaceOnUse" color-interpolation-filters="sRGB">
<feFlood flood-opacity="0" result="BackgroundImageFix"/>
<feBlend mode="normal" in="SourceGraphic" in2="BackgroundImageFix" result="shape"/>
<feColorMatrix in="SourceAlpha" type="matrix" values="0 0 0 0 0 0 0 0 0 0 0 0 0 0 0 0 0 0 127 0" result="hardAlpha"/>
<feOffset dy="4"/>
<feGaussianBlur stdDeviation="10.25"/>
<feComposite in2="hardAlpha" operator="arithmetic" k2="-1" k3="1"/>
<feColorMatrix type="matrix" values="0 0 0 0 1 0 0 0 0 0.856714 0 0 0 0 0.754167 0 0 0 0.3 0"/>
<feBlend mode="normal" in2="shape" result="effect1_innerShadow_28_408"/>
</filter>
<radialGradient id="paint0_radial_28_408" cx="0" cy="0" r="1" gradientUnits="userSpaceOnUse" gradientTransform="translate(23.3143 4.11429) rotate(103.241) scale(23.951 13.1179)">
<stop stop-color="white"/>
<stop offset="1" stop-color="white" stop-opacity="0"/>
</radialGradient>
<radialGradient id="paint1_radial_28_408" cx="0" cy="0" r="1" gradientUnits="userSpaceOnUse" gradientTransform="translate(17.8784 2.59559e-06) rotate(90.4081) scale(23.8292 12.064)">
<stop stop-color="white"/>
<stop offset="1" stop-color="white" stop-opacity="0"/>
</radialGradient>
</defs>
</svg>
