<svg width="35" height="42" viewBox="0 0 35 42" fill="none" xmlns="http://www.w3.org/2000/svg">
<g filter="url(#filter0_i_28_429)">
<circle cx="17.1429" cy="17.1429" r="17.1429" fill="#FF5F05"/>
<circle cx="17.1429" cy="17.1429" r="17.1429" fill="url(#paint0_radial_28_429)" fill-opacity="0.4"/>
</g>
<circle cx="17.1429" cy="17.1429" r="16.6429" stroke="white" stroke-opacity="0.2"/>
<circle cx="17.1429" cy="17.1429" r="16.6429" stroke="url(#paint1_radial_28_429)" stroke-opacity="0.53"/>
<path d="M11.6809 7.92859H13.0809C13.5809 7.92859 14.0059 8.10359 14.3559 8.45359C14.7059 8.80359 14.8809 9.22859 14.8809 9.72859V23.6286C14.8809 24.1286 14.7059 24.5536 14.3559 24.9036C14.0059 25.2536 13.5809 25.4286 13.0809 25.4286H11.6809C11.1809 25.4286 10.7559 25.2536 10.4059 24.9036C10.0559 24.5536 9.88086 24.1286 9.88086 23.6286V9.72859C9.88086 9.22859 10.0559 8.80359 10.4059 8.45359C10.7559 8.10359 11.1809 7.92859 11.6809 7.92859ZM11.8809 23.9286H12.8809C13.0142 23.9286 13.1309 23.8786 13.2309 23.7786C13.3309 23.6786 13.3809 23.5619 13.3809 23.4286V9.92859C13.3809 9.79526 13.3309 9.67859 13.2309 9.57859C13.1309 9.47859 13.0142 9.42859 12.8809 9.42859H11.8809C11.7475 9.42859 11.6309 9.47859 11.5309 9.57859C11.4309 9.67859 11.3809 9.79526 11.3809 9.92859V23.4286C11.3809 23.5619 11.4309 23.6786 11.5309 23.7786C11.6309 23.8786 11.7475 23.9286 11.8809 23.9286ZM17.625 22.9286H19.125V23.4286C19.125 23.5619 19.175 23.6786 19.275 23.7786C19.375 23.8786 19.4917 23.9286 19.625 23.9286H20.625C20.7583 23.9286 20.875 23.8786 20.975 23.7786C21.075 23.6786 21.125 23.5619 21.125 23.4286V19.9286C21.125 19.7953 21.075 19.6703 20.975 19.5536C20.875 19.4369 20.7583 19.3786 20.625 19.3786H20.55C19.8167 19.2619 19.25 18.9953 18.85 18.5786C18.4667 18.1453 18.1833 17.6369 18 17.0536C17.8167 16.4536 17.7083 15.8286 17.675 15.1786C17.6417 14.5119 17.625 13.8786 17.625 13.2786V7.92859H22.625V9.42859H19.125V12.2536C19.125 13.2536 19.1417 14.1036 19.175 14.8036C19.225 15.5036 19.3167 16.0786 19.45 16.5286C19.6 16.9786 19.8 17.3203 20.05 17.5536C20.3167 17.7703 20.675 17.9036 21.125 17.9536C21.5583 18.0369 21.9167 18.2453 22.2 18.5786C22.4833 18.8953 22.625 19.2786 22.625 19.7286V23.6286C22.625 24.1286 22.45 24.5536 22.1 24.9036C21.75 25.2536 21.325 25.4286 20.825 25.4286H19.425C18.925 25.4286 18.5 25.2536 18.15 24.9036C17.8 24.5536 17.625 24.1286 17.625 23.6286V22.9286Z" fill="white"/>
<defs>
<filter id="filter0_i_28_429" x="0" y="0" width="34.2858" height="38.2858" filterUnits="userSpaceOnUse" color-interpolation-filters="sRGB">
<feFlood flood-opacity="0" result="BackgroundImageFix"/>
<feBlend mode="normal" in="SourceGraphic" in2="BackgroundImageFix" result="shape"/>
<feColorMatrix in="SourceAlpha" type="matrix" values="0 0 0 0 0 0 0 0 0 0 0 0 0 0 0 0 0 0 127 0" result="hardAlpha"/>
<feOffset dy="4"/>
<feGaussianBlur stdDeviation="10.25"/>
<feComposite in2="hardAlpha" operator="arithmetic" k2="-1" k3="1"/>
<feColorMatrix type="matrix" values="0 0 0 0 1 0 0 0 0 0.856714 0 0 0 0 0.754167 0 0 0 0.3 0"/>
<feBlend mode="normal" in2="shape" result="effect1_innerShadow_28_429"/>
</filter>
<radialGradient id="paint0_radial_28_429" cx="0" cy="0" r="1" gradientUnits="userSpaceOnUse" gradientTransform="translate(23.3143 4.11429) rotate(103.241) scale(23.951 13.1179)">
<stop stop-color="white"/>
<stop offset="1" stop-color="white" stop-opacity="0"/>
</radialGradient>
<radialGradient id="paint1_radial_28_429" cx="0" cy="0" r="1" gradientUnits="userSpaceOnUse" gradientTransform="translate(17.8784 2.59559e-06) rotate(90.4081) scale(23.8292 12.064)">
<stop stop-color="white"/>
<stop offset="1" stop-color="white" stop-opacity="0"/>
</radialGradient>
</defs>
</svg>
