<svg width="335" height="64" viewBox="0 0 335 64" fill="none" xmlns="http://www.w3.org/2000/svg">
<g filter="url(#filter0_i_30_445)">
<path d="M0 32C0 14.3269 14.3269 0 32 0H303C320.673 0 335 14.3269 335 32C335 49.6731 320.673 64 303 64H32C14.3269 64 0 49.6731 0 32Z" fill="#FF5F05"/>
<path d="M0 32C0 14.3269 14.3269 0 32 0H303C320.673 0 335 14.3269 335 32C335 49.6731 320.673 64 303 64H32C14.3269 64 0 49.6731 0 32Z" fill="url(#paint0_radial_30_445)" fill-opacity="0.3"/>
</g>
<path d="M1 32C1 14.8792 14.8792 1 32 1H303C320.121 1 334 14.8792 334 32C334 49.1208 320.121 63 303 63H32C14.8792 63 1 49.1208 1 32Z" stroke="white" stroke-opacity="0.2" stroke-width="2"/>
<path d="M1 32C1 14.8792 14.8792 1 32 1H303C320.121 1 334 14.8792 334 32C334 49.1208 320.121 63 303 63H32C14.8792 63 1 49.1208 1 32Z" stroke="url(#paint1_radial_30_445)" stroke-opacity="0.53" stroke-width="2"/>
<path d="M82.1376 35.13C81.4356 35.13 80.7553 35.0303 80.0966 34.831C79.4466 34.6317 78.9309 34.3673 78.5496 34.038L79.1346 32.725C79.5073 33.0197 79.9623 33.2623 80.4996 33.453C81.0456 33.635 81.5916 33.726 82.1376 33.726C82.8136 33.726 83.3163 33.6177 83.6456 33.401C83.9836 33.1843 84.1526 32.8983 84.1526 32.543C84.1526 32.283 84.0573 32.0707 83.8666 31.906C83.6846 31.7327 83.4506 31.5983 83.1646 31.503C82.8786 31.4077 82.4886 31.2993 81.9946 31.178C81.3013 31.0133 80.7379 30.8487 80.3046 30.684C79.8799 30.5193 79.5116 30.2637 79.1996 29.917C78.8963 29.5617 78.7446 29.085 78.7446 28.487C78.7446 27.9843 78.8789 27.5293 79.1476 27.122C79.4249 26.706 79.8366 26.3767 80.3826 26.134C80.9373 25.8913 81.6133 25.77 82.4106 25.77C82.9653 25.77 83.5113 25.8393 84.0486 25.978C84.5859 26.1167 85.0496 26.316 85.4396 26.576L84.9066 27.889C84.5079 27.655 84.0919 27.4773 83.6586 27.356C83.2253 27.2347 82.8049 27.174 82.3976 27.174C81.7303 27.174 81.2319 27.2867 80.9026 27.512C80.5819 27.7373 80.4216 28.0363 80.4216 28.409C80.4216 28.669 80.5126 28.8813 80.6946 29.046C80.8853 29.2107 81.1236 29.3407 81.4096 29.436C81.6956 29.5313 82.0856 29.6397 82.5796 29.761C83.2556 29.917 83.8103 30.0817 84.2436 30.255C84.6769 30.4197 85.0453 30.6753 85.3486 31.022C85.6606 31.3687 85.8166 31.8367 85.8166 32.426C85.8166 32.9287 85.6779 33.3837 85.4006 33.791C85.1319 34.1983 84.7203 34.5233 84.1656 34.766C83.6109 35.0087 82.9349 35.13 82.1376 35.13ZM90.2514 27.33H87.2354V25.9H94.9574V27.33H91.9414V35H90.2514V27.33ZM102.711 32.894H98.1607L97.2637 35H95.5217L99.6167 25.9H101.281L105.389 35H103.621L102.711 32.894ZM102.152 31.568L100.436 27.59L98.7327 31.568H102.152ZM113.54 35L111.681 32.335C111.603 32.3437 111.486 32.348 111.33 32.348H109.276V35H107.586V25.9H111.33C112.119 25.9 112.803 26.03 113.384 26.29C113.973 26.55 114.424 26.9227 114.736 27.408C115.048 27.8933 115.204 28.4697 115.204 29.137C115.204 29.8217 115.035 30.411 114.697 30.905C114.368 31.399 113.891 31.7673 113.267 32.01L115.36 35H113.54ZM113.501 29.137C113.501 28.5563 113.31 28.11 112.929 27.798C112.548 27.486 111.989 27.33 111.252 27.33H109.276V30.957H111.252C111.989 30.957 112.548 30.801 112.929 30.489C113.31 30.1683 113.501 29.7177 113.501 29.137ZM119.854 27.33H116.838V25.9H124.56V27.33H121.544V35H119.854V27.33ZM133.347 27.33H130.331V25.9H138.053V27.33H135.037V35H133.347V27.33ZM146.315 35L144.456 32.335C144.378 32.3437 144.261 32.348 144.105 32.348H142.051V35H140.361V25.9H144.105C144.894 25.9 145.579 26.03 146.159 26.29C146.749 26.55 147.199 26.9227 147.511 27.408C147.823 27.8933 147.979 28.4697 147.979 29.137C147.979 29.8217 147.81 30.411 147.472 30.905C147.143 31.399 146.666 31.7673 146.042 32.01L148.135 35H146.315ZM146.276 29.137C146.276 28.5563 146.086 28.11 145.704 27.798C145.323 27.486 144.764 27.33 144.027 27.33H142.051V30.957H144.027C144.764 30.957 145.323 30.801 145.704 30.489C146.086 30.1683 146.276 29.7177 146.276 29.137ZM156.812 32.894H152.262L151.365 35H149.623L153.718 25.9H155.382L159.49 35H157.722L156.812 32.894ZM156.253 31.568L154.537 27.59L152.834 31.568H156.253ZM169.773 25.9V35H168.382L163.364 28.838V35H161.687V25.9H163.078L168.096 32.062V25.9H169.773ZM176.073 35.13C175.371 35.13 174.69 35.0303 174.032 34.831C173.382 34.6317 172.866 34.3673 172.485 34.038L173.07 32.725C173.442 33.0197 173.897 33.2623 174.435 33.453C174.981 33.635 175.527 33.726 176.073 33.726C176.749 33.726 177.251 33.6177 177.581 33.401C177.919 33.1843 178.088 32.8983 178.088 32.543C178.088 32.283 177.992 32.0707 177.802 31.906C177.62 31.7327 177.386 31.5983 177.1 31.503C176.814 31.4077 176.424 31.2993 175.93 31.178C175.236 31.0133 174.673 30.8487 174.24 30.684C173.815 30.5193 173.447 30.2637 173.135 29.917C172.831 29.5617 172.68 29.085 172.68 28.487C172.68 27.9843 172.814 27.5293 173.083 27.122C173.36 26.706 173.772 26.3767 174.318 26.134C174.872 25.8913 175.548 25.77 176.346 25.77C176.9 25.77 177.446 25.8393 177.984 25.978C178.521 26.1167 178.985 26.316 179.375 26.576L178.842 27.889C178.443 27.655 178.027 27.4773 177.594 27.356C177.16 27.2347 176.74 27.174 176.333 27.174C175.665 27.174 175.167 27.2867 174.838 27.512C174.517 27.7373 174.357 28.0363 174.357 28.409C174.357 28.669 174.448 28.8813 174.63 29.046C174.82 29.2107 175.059 29.3407 175.345 29.436C175.631 29.5313 176.021 29.6397 176.515 29.761C177.191 29.917 177.745 30.0817 178.179 30.255C178.612 30.4197 178.98 30.6753 179.284 31.022C179.596 31.3687 179.752 31.8367 179.752 32.426C179.752 32.9287 179.613 33.3837 179.336 33.791C179.067 34.1983 178.655 34.5233 178.101 34.766C177.546 35.0087 176.87 35.13 176.073 35.13ZM184.158 27.317V30.086H188.552V31.516H184.158V35H182.468V25.9H189.111V27.317H184.158ZM195.934 35.13C195.007 35.13 194.171 34.9307 193.425 34.532C192.68 34.1247 192.095 33.5657 191.67 32.855C191.246 32.1357 191.033 31.334 191.033 30.45C191.033 29.566 191.246 28.7687 191.67 28.058C192.095 27.3387 192.68 26.7797 193.425 26.381C194.171 25.9737 195.007 25.77 195.934 25.77C196.862 25.77 197.698 25.9737 198.443 26.381C199.189 26.7797 199.774 27.3343 200.198 28.045C200.623 28.7557 200.835 29.5573 200.835 30.45C200.835 31.3427 200.623 32.1443 200.198 32.855C199.774 33.5657 199.189 34.1247 198.443 34.532C197.698 34.9307 196.862 35.13 195.934 35.13ZM195.934 33.648C196.541 33.648 197.087 33.5137 197.572 33.245C198.058 32.9677 198.439 32.5863 198.716 32.101C198.994 31.607 199.132 31.0567 199.132 30.45C199.132 29.8433 198.994 29.2973 198.716 28.812C198.439 28.318 198.058 27.9367 197.572 27.668C197.087 27.3907 196.541 27.252 195.934 27.252C195.328 27.252 194.782 27.3907 194.296 27.668C193.811 27.9367 193.43 28.318 193.152 28.812C192.875 29.2973 192.736 29.8433 192.736 30.45C192.736 31.0567 192.875 31.607 193.152 32.101C193.43 32.5863 193.811 32.9677 194.296 33.245C194.782 33.5137 195.328 33.648 195.934 33.648ZM209.621 35L207.762 32.335C207.684 32.3437 207.567 32.348 207.411 32.348H205.357V35H203.667V25.9H207.411C208.199 25.9 208.884 26.03 209.465 26.29C210.054 26.55 210.505 26.9227 210.817 27.408C211.129 27.8933 211.285 28.4697 211.285 29.137C211.285 29.8217 211.116 30.411 210.778 30.905C210.448 31.399 209.972 31.7673 209.348 32.01L211.441 35H209.621ZM209.582 29.137C209.582 28.5563 209.391 28.11 209.01 27.798C208.628 27.486 208.069 27.33 207.333 27.33H205.357V30.957H207.333C208.069 30.957 208.628 30.801 209.01 30.489C209.391 30.1683 209.582 29.7177 209.582 29.137ZM222.574 35L222.561 28.968L219.571 33.96H218.817L215.827 29.046V35H214.215V25.9H215.606L219.22 31.932L222.769 25.9H224.16L224.173 35H222.574ZM227.671 25.9H229.361V35H227.671V25.9ZM240.949 25.9V35H239.558L234.54 28.838V35H232.863V25.9H234.254L239.272 32.062V25.9H240.949ZM250.641 30.346H252.24V33.973C251.772 34.3457 251.226 34.6317 250.602 34.831C249.978 35.0303 249.337 35.13 248.678 35.13C247.751 35.13 246.915 34.9307 246.169 34.532C245.424 34.1247 244.839 33.5657 244.414 32.855C243.99 32.1443 243.777 31.3427 243.777 30.45C243.777 29.5573 243.99 28.7557 244.414 28.045C244.839 27.3343 245.424 26.7797 246.169 26.381C246.923 25.9737 247.768 25.77 248.704 25.77C249.467 25.77 250.16 25.8957 250.784 26.147C251.408 26.3983 251.933 26.7667 252.357 27.252L251.291 28.292C250.598 27.5987 249.762 27.252 248.782 27.252C248.141 27.252 247.569 27.3863 247.066 27.655C246.572 27.9237 246.182 28.3007 245.896 28.786C245.619 29.2713 245.48 29.826 245.48 30.45C245.48 31.0567 245.619 31.6027 245.896 32.088C246.182 32.5733 246.572 32.9547 247.066 33.232C247.569 33.5093 248.137 33.648 248.769 33.648C249.48 33.648 250.104 33.492 250.641 33.18V30.346ZM255.145 25.9H257.069L256.744 31.984H255.457L255.145 25.9ZM256.107 35.091C255.804 35.091 255.553 34.9957 255.353 34.805C255.154 34.6057 255.054 34.363 255.054 34.077C255.054 33.791 255.154 33.5527 255.353 33.362C255.553 33.1713 255.804 33.076 256.107 33.076C256.402 33.076 256.645 33.1713 256.835 33.362C257.035 33.5527 257.134 33.791 257.134 34.077C257.134 34.363 257.035 34.6057 256.835 34.805C256.645 34.9957 256.402 35.091 256.107 35.091Z" fill="white"/>
<defs>
<filter id="filter0_i_30_445" x="0" y="0" width="335" height="68" filterUnits="userSpaceOnUse" color-interpolation-filters="sRGB">
<feFlood flood-opacity="0" result="BackgroundImageFix"/>
<feBlend mode="normal" in="SourceGraphic" in2="BackgroundImageFix" result="shape"/>
<feColorMatrix in="SourceAlpha" type="matrix" values="0 0 0 0 0 0 0 0 0 0 0 0 0 0 0 0 0 0 127 0" result="hardAlpha"/>
<feOffset dy="4"/>
<feGaussianBlur stdDeviation="10.25"/>
<feComposite in2="hardAlpha" operator="arithmetic" k2="-1" k3="1"/>
<feColorMatrix type="matrix" values="0 0 0 0 1 0 0 0 0 0.856714 0 0 0 0 0.754167 0 0 0 0.6 0"/>
<feBlend mode="normal" in2="shape" result="effect1_innerShadow_30_445"/>
</filter>
<radialGradient id="paint0_radial_30_445" cx="0" cy="0" r="1" gradientUnits="userSpaceOnUse" gradientTransform="translate(177.938 13.44) rotate(96.8657) scale(83.1563 179.512)">
<stop stop-color="white"/>
<stop offset="1" stop-color="white" stop-opacity="0"/>
</radialGradient>
<radialGradient id="paint1_radial_30_445" cx="0" cy="0" r="1" gradientUnits="userSpaceOnUse" gradientTransform="translate(174.686 4.8451e-06) rotate(92.1353) scale(44.5109 117.797)">
<stop stop-color="white"/>
<stop offset="1" stop-color="white" stop-opacity="0"/>
</radialGradient>
</defs>
</svg>
