<svg width="335" height="88" viewBox="0 0 335 88" fill="none" xmlns="http://www.w3.org/2000/svg">
<g filter="url(#filter0_i_2_19)">
<path d="M0 44C0 19.6995 19.6995 0 44 0H291C315.301 0 335 19.6995 335 44C335 68.3005 315.301 88 291 88H44C19.6995 88 0 68.3005 0 44Z" fill="#FF5F05"/>
<path d="M0 44C0 19.6995 19.6995 0 44 0H291C315.301 0 335 19.6995 335 44C335 68.3005 315.301 88 291 88H44C19.6995 88 0 68.3005 0 44Z" fill="url(#paint0_radial_2_19)" fill-opacity="0.3"/>
</g>
<path d="M1 44C1 20.2518 20.2518 1 44 1H291C314.748 1 334 20.2518 334 44C334 67.7482 314.748 87 291 87H44C20.2518 87 1 67.7482 1 44Z" stroke="white" stroke-opacity="0.2" stroke-width="2"/>
<path d="M1 44C1 20.2518 20.2518 1 44 1H291C314.748 1 334 20.2518 334 44C334 67.7482 314.748 87 291 87H44C20.2518 87 1 67.7482 1 44Z" stroke="url(#paint1_radial_2_19)" stroke-opacity="0.53" stroke-width="2"/>
<path d="M82.1376 47.13C81.4356 47.13 80.7553 47.0303 80.0966 46.831C79.4466 46.6317 78.9309 46.3673 78.5496 46.038L79.1346 44.725C79.5073 45.0197 79.9623 45.2623 80.4996 45.453C81.0456 45.635 81.5916 45.726 82.1376 45.726C82.8136 45.726 83.3163 45.6177 83.6456 45.401C83.9836 45.1843 84.1526 44.8983 84.1526 44.543C84.1526 44.283 84.0573 44.0707 83.8666 43.906C83.6846 43.7327 83.4506 43.5983 83.1646 43.503C82.8786 43.4077 82.4886 43.2993 81.9946 43.178C81.3013 43.0133 80.7379 42.8487 80.3046 42.684C79.8799 42.5193 79.5116 42.2637 79.1996 41.917C78.8963 41.5617 78.7446 41.085 78.7446 40.487C78.7446 39.9843 78.8789 39.5293 79.1476 39.122C79.4249 38.706 79.8366 38.3767 80.3826 38.134C80.9373 37.8913 81.6133 37.77 82.4106 37.77C82.9653 37.77 83.5113 37.8393 84.0486 37.978C84.5859 38.1167 85.0496 38.316 85.4396 38.576L84.9066 39.889C84.5079 39.655 84.0919 39.4773 83.6586 39.356C83.2253 39.2347 82.8049 39.174 82.3976 39.174C81.7303 39.174 81.2319 39.2867 80.9026 39.512C80.5819 39.7373 80.4216 40.0363 80.4216 40.409C80.4216 40.669 80.5126 40.8813 80.6946 41.046C80.8853 41.2107 81.1236 41.3407 81.4096 41.436C81.6956 41.5313 82.0856 41.6397 82.5796 41.761C83.2556 41.917 83.8103 42.0817 84.2436 42.255C84.6769 42.4197 85.0453 42.6753 85.3486 43.022C85.6606 43.3687 85.8166 43.8367 85.8166 44.426C85.8166 44.9287 85.6779 45.3837 85.4006 45.791C85.1319 46.1983 84.7203 46.5233 84.1656 46.766C83.6109 47.0087 82.9349 47.13 82.1376 47.13ZM90.2514 39.33H87.2354V37.9H94.9574V39.33H91.9414V47H90.2514V39.33ZM102.711 44.894H98.1607L97.2637 47H95.5217L99.6167 37.9H101.281L105.389 47H103.621L102.711 44.894ZM102.152 43.568L100.436 39.59L98.7327 43.568H102.152ZM113.54 47L111.681 44.335C111.603 44.3437 111.486 44.348 111.33 44.348H109.276V47H107.586V37.9H111.33C112.119 37.9 112.803 38.03 113.384 38.29C113.973 38.55 114.424 38.9227 114.736 39.408C115.048 39.8933 115.204 40.4697 115.204 41.137C115.204 41.8217 115.035 42.411 114.697 42.905C114.368 43.399 113.891 43.7673 113.267 44.01L115.36 47H113.54ZM113.501 41.137C113.501 40.5563 113.31 40.11 112.929 39.798C112.548 39.486 111.989 39.33 111.252 39.33H109.276V42.957H111.252C111.989 42.957 112.548 42.801 112.929 42.489C113.31 42.1683 113.501 41.7177 113.501 41.137ZM119.854 39.33H116.838V37.9H124.56V39.33H121.544V47H119.854V39.33ZM133.347 39.33H130.331V37.9H138.053V39.33H135.037V47H133.347V39.33ZM146.315 47L144.456 44.335C144.378 44.3437 144.261 44.348 144.105 44.348H142.051V47H140.361V37.9H144.105C144.894 37.9 145.579 38.03 146.159 38.29C146.749 38.55 147.199 38.9227 147.511 39.408C147.823 39.8933 147.979 40.4697 147.979 41.137C147.979 41.8217 147.81 42.411 147.472 42.905C147.143 43.399 146.666 43.7673 146.042 44.01L148.135 47H146.315ZM146.276 41.137C146.276 40.5563 146.086 40.11 145.704 39.798C145.323 39.486 144.764 39.33 144.027 39.33H142.051V42.957H144.027C144.764 42.957 145.323 42.801 145.704 42.489C146.086 42.1683 146.276 41.7177 146.276 41.137ZM156.812 44.894H152.262L151.365 47H149.623L153.718 37.9H155.382L159.49 47H157.722L156.812 44.894ZM156.253 43.568L154.537 39.59L152.834 43.568H156.253ZM169.773 37.9V47H168.382L163.364 40.838V47H161.687V37.9H163.078L168.096 44.062V37.9H169.773ZM176.073 47.13C175.371 47.13 174.69 47.0303 174.032 46.831C173.382 46.6317 172.866 46.3673 172.485 46.038L173.07 44.725C173.442 45.0197 173.897 45.2623 174.435 45.453C174.981 45.635 175.527 45.726 176.073 45.726C176.749 45.726 177.251 45.6177 177.581 45.401C177.919 45.1843 178.088 44.8983 178.088 44.543C178.088 44.283 177.992 44.0707 177.802 43.906C177.62 43.7327 177.386 43.5983 177.1 43.503C176.814 43.4077 176.424 43.2993 175.93 43.178C175.236 43.0133 174.673 42.8487 174.24 42.684C173.815 42.5193 173.447 42.2637 173.135 41.917C172.831 41.5617 172.68 41.085 172.68 40.487C172.68 39.9843 172.814 39.5293 173.083 39.122C173.36 38.706 173.772 38.3767 174.318 38.134C174.872 37.8913 175.548 37.77 176.346 37.77C176.9 37.77 177.446 37.8393 177.984 37.978C178.521 38.1167 178.985 38.316 179.375 38.576L178.842 39.889C178.443 39.655 178.027 39.4773 177.594 39.356C177.16 39.2347 176.74 39.174 176.333 39.174C175.665 39.174 175.167 39.2867 174.838 39.512C174.517 39.7373 174.357 40.0363 174.357 40.409C174.357 40.669 174.448 40.8813 174.63 41.046C174.82 41.2107 175.059 41.3407 175.345 41.436C175.631 41.5313 176.021 41.6397 176.515 41.761C177.191 41.917 177.745 42.0817 178.179 42.255C178.612 42.4197 178.98 42.6753 179.284 43.022C179.596 43.3687 179.752 43.8367 179.752 44.426C179.752 44.9287 179.613 45.3837 179.336 45.791C179.067 46.1983 178.655 46.5233 178.101 46.766C177.546 47.0087 176.87 47.13 176.073 47.13ZM184.158 39.317V42.086H188.552V43.516H184.158V47H182.468V37.9H189.111V39.317H184.158ZM195.934 47.13C195.007 47.13 194.171 46.9307 193.425 46.532C192.68 46.1247 192.095 45.5657 191.67 44.855C191.246 44.1357 191.033 43.334 191.033 42.45C191.033 41.566 191.246 40.7687 191.67 40.058C192.095 39.3387 192.68 38.7797 193.425 38.381C194.171 37.9737 195.007 37.77 195.934 37.77C196.862 37.77 197.698 37.9737 198.443 38.381C199.189 38.7797 199.774 39.3343 200.198 40.045C200.623 40.7557 200.835 41.5573 200.835 42.45C200.835 43.3427 200.623 44.1443 200.198 44.855C199.774 45.5657 199.189 46.1247 198.443 46.532C197.698 46.9307 196.862 47.13 195.934 47.13ZM195.934 45.648C196.541 45.648 197.087 45.5137 197.572 45.245C198.058 44.9677 198.439 44.5863 198.716 44.101C198.994 43.607 199.132 43.0567 199.132 42.45C199.132 41.8433 198.994 41.2973 198.716 40.812C198.439 40.318 198.058 39.9367 197.572 39.668C197.087 39.3907 196.541 39.252 195.934 39.252C195.328 39.252 194.782 39.3907 194.296 39.668C193.811 39.9367 193.43 40.318 193.152 40.812C192.875 41.2973 192.736 41.8433 192.736 42.45C192.736 43.0567 192.875 43.607 193.152 44.101C193.43 44.5863 193.811 44.9677 194.296 45.245C194.782 45.5137 195.328 45.648 195.934 45.648ZM209.621 47L207.762 44.335C207.684 44.3437 207.567 44.348 207.411 44.348H205.357V47H203.667V37.9H207.411C208.199 37.9 208.884 38.03 209.465 38.29C210.054 38.55 210.505 38.9227 210.817 39.408C211.129 39.8933 211.285 40.4697 211.285 41.137C211.285 41.8217 211.116 42.411 210.778 42.905C210.448 43.399 209.972 43.7673 209.348 44.01L211.441 47H209.621ZM209.582 41.137C209.582 40.5563 209.391 40.11 209.01 39.798C208.628 39.486 208.069 39.33 207.333 39.33H205.357V42.957H207.333C208.069 42.957 208.628 42.801 209.01 42.489C209.391 42.1683 209.582 41.7177 209.582 41.137ZM222.574 47L222.561 40.968L219.571 45.96H218.817L215.827 41.046V47H214.215V37.9H215.606L219.22 43.932L222.769 37.9H224.16L224.173 47H222.574ZM227.671 37.9H229.361V47H227.671V37.9ZM240.949 37.9V47H239.558L234.54 40.838V47H232.863V37.9H234.254L239.272 44.062V37.9H240.949ZM250.641 42.346H252.24V45.973C251.772 46.3457 251.226 46.6317 250.602 46.831C249.978 47.0303 249.337 47.13 248.678 47.13C247.751 47.13 246.915 46.9307 246.169 46.532C245.424 46.1247 244.839 45.5657 244.414 44.855C243.99 44.1443 243.777 43.3427 243.777 42.45C243.777 41.5573 243.99 40.7557 244.414 40.045C244.839 39.3343 245.424 38.7797 246.169 38.381C246.923 37.9737 247.768 37.77 248.704 37.77C249.467 37.77 250.16 37.8957 250.784 38.147C251.408 38.3983 251.933 38.7667 252.357 39.252L251.291 40.292C250.598 39.5987 249.762 39.252 248.782 39.252C248.141 39.252 247.569 39.3863 247.066 39.655C246.572 39.9237 246.182 40.3007 245.896 40.786C245.619 41.2713 245.48 41.826 245.48 42.45C245.48 43.0567 245.619 43.6027 245.896 44.088C246.182 44.5733 246.572 44.9547 247.066 45.232C247.569 45.5093 248.137 45.648 248.769 45.648C249.48 45.648 250.104 45.492 250.641 45.18V42.346ZM255.145 37.9H257.069L256.744 43.984H255.457L255.145 37.9ZM256.107 47.091C255.804 47.091 255.553 46.9957 255.353 46.805C255.154 46.6057 255.054 46.363 255.054 46.077C255.054 45.791 255.154 45.5527 255.353 45.362C255.553 45.1713 255.804 45.076 256.107 45.076C256.402 45.076 256.645 45.1713 256.835 45.362C257.035 45.5527 257.134 45.791 257.134 46.077C257.134 46.363 257.035 46.6057 256.835 46.805C256.645 46.9957 256.402 47.091 256.107 47.091Z" fill="white"/>
<defs>
<filter id="filter0_i_2_19" x="0" y="0" width="335" height="92" filterUnits="userSpaceOnUse" color-interpolation-filters="sRGB">
<feFlood flood-opacity="0" result="BackgroundImageFix"/>
<feBlend mode="normal" in="SourceGraphic" in2="BackgroundImageFix" result="shape"/>
<feColorMatrix in="SourceAlpha" type="matrix" values="0 0 0 0 0 0 0 0 0 0 0 0 0 0 0 0 0 0 127 0" result="hardAlpha"/>
<feOffset dy="4"/>
<feGaussianBlur stdDeviation="10.25"/>
<feComposite in2="hardAlpha" operator="arithmetic" k2="-1" k3="1"/>
<feColorMatrix type="matrix" values="0 0 0 0 1 0 0 0 0 0.856714 0 0 0 0 0.754167 0 0 0 0.6 0"/>
<feBlend mode="normal" in2="shape" result="effect1_innerShadow_2_19"/>
</filter>
<radialGradient id="paint0_radial_2_19" cx="0" cy="0" r="1" gradientUnits="userSpaceOnUse" gradientTransform="translate(177.938 18.48) rotate(95.0045) scale(113.954 180.119)">
<stop stop-color="white"/>
<stop offset="1" stop-color="white" stop-opacity="0"/>
</radialGradient>
<radialGradient id="paint1_radial_2_19" cx="0" cy="0" r="1" gradientUnits="userSpaceOnUse" gradientTransform="translate(174.686 6.66202e-06) rotate(91.5533) scale(61.1825 117.835)">
<stop stop-color="white"/>
<stop offset="1" stop-color="white" stop-opacity="0"/>
</radialGradient>
</defs>
</svg>
